<svg
            xmlns="http://www.w3.org/2000/svg"
            x="0px"
            y="0px"
            width="50"
            height="50"
            viewBox="0 0 172 172"
            style="fill: #000000"
          >
            <g
              fill="none"
              fill-rule="nonzero"
              stroke="none"
              stroke-width="1"
              stroke-linecap="butt"
              stroke-linejoin="miter"
              stroke-miterlimit="10"
              stroke-dasharray=""
              stroke-dashoffset="0"
              font-family="none"
              font-weight="none"
              font-size="none"
              text-anchor="none"
              style="mixBlendMode: normal"
            >
              <path d="M0,172v-172h172v172z" fill="none"></path>
              <path
                d="M0,86c0,-47.49649 38.50351,-86 86,-86c47.49649,0 86,38.50351 86,86c0,47.49649 -38.50351,86 -86,86c-47.49649,0 -86,-38.50351 -86,-86zM86,165.12c43.69677,0 79.12,-35.42323 79.12,-79.12c0,-43.69677 -35.42323,-79.12 -79.12,-79.12c-43.69677,0 -79.12,35.42323 -79.12,79.12c0,43.69677 35.42323,79.12 79.12,79.12z"
                fill="#000000"
              ></path>
              <g fill="#000000">
                <path d="M61.40925,61.16532c-1.21884,-0.04036 -2.38924,0.46009 -3.20449,1.36413l-21.71306,23.4727l21.71306,23.4727c0.99283,1.10583 2.51032,1.59821 3.97131,1.27534c1.45292,-0.32287 2.62332,-1.40449 3.0592,-2.83319c0.43587,-1.4287 0.07265,-2.97848 -0.96054,-4.0601l-12.69689,-13.72201h79.91858c1.49328,0.02422 2.87355,-0.75875 3.62422,-2.05023c0.75875,-1.28341 0.75875,-2.88162 0,-4.16503c-0.75067,-1.29148 -2.13095,-2.07445 -3.62422,-2.05023h-79.91858l12.69689,-13.72201c1.12198,-1.18655 1.44485,-2.91391 0.82332,-4.42333c-0.61345,-1.50135 -2.0583,-2.51032 -3.6888,-2.55875z"></path>
              </g>
              <path
                d="M86,172c-47.49649,0 -86,-38.50351 -86,-86v0c0,-47.49649 38.50351,-86 86,-86v0c47.49649,0 86,38.50351 86,86v0c0,47.49649 -38.50351,86 -86,86z"
                fill="none"
              ></path>
              <path
                d="M86,168.56c-45.59663,0 -82.56,-36.96337 -82.56,-82.56v0c0,-45.59663 36.96337,-82.56 82.56,-82.56v0c45.59663,0 82.56,36.96337 82.56,82.56v0c0,45.59663 -36.96337,82.56 -82.56,82.56z"
                fill="none"
              ></path>
              <path
                d="M86,172c-47.49649,0 -86,-38.50351 -86,-86v0c0,-47.49649 38.50351,-86 86,-86v0c47.49649,0 86,38.50351 86,86v0c0,47.49649 -38.50351,86 -86,86z"
                fill="none"
              ></path>
              <path
                d="M86,168.56c-45.59663,0 -82.56,-36.96337 -82.56,-82.56v0c0,-45.59663 36.96337,-82.56 82.56,-82.56v0c45.59663,0 82.56,36.96337 82.56,82.56v0c0,45.59663 -36.96337,82.56 -82.56,82.56z"
                fill="none"
              ></path>
              <path
                d="M86,172c-47.49649,0 -86,-38.50351 -86,-86v0c0,-47.49649 38.50351,-86 86,-86v0c47.49649,0 86,38.50351 86,86v0c0,47.49649 -38.50351,86 -86,86z"
                fill="none"
              ></path>
              <path
                d="M86,168.56c-45.59663,0 -82.56,-36.96337 -82.56,-82.56v0c0,-45.59663 36.96337,-82.56 82.56,-82.56v0c45.59663,0 82.56,36.96337 82.56,82.56v0c0,45.59663 -36.96337,82.56 -82.56,82.56z"
                fill="none"
              ></path>
              <path
                d="M86,172c-47.49649,0 -86,-38.50351 -86,-86v0c0,-47.49649 38.50351,-86 86,-86v0c47.49649,0 86,38.50351 86,86v0c0,47.49649 -38.50351,86 -86,86z"
                fill="none"
              ></path>
              <path
                d="M86,168.56c-45.59663,0 -82.56,-36.96337 -82.56,-82.56v0c0,-45.59663 36.96337,-82.56 82.56,-82.56v0c45.59663,0 82.56,36.96337 82.56,82.56v0c0,45.59663 -36.96337,82.56 -82.56,82.56z"
                fill="none"
              ></path>
              <path
                d="M86,172c-47.49649,0 -86,-38.50351 -86,-86v0c0,-47.49649 38.50351,-86 86,-86v0c47.49649,0 86,38.50351 86,86v0c0,47.49649 -38.50351,86 -86,86z"
                fill="none"
              ></path>
              <path
                d="M86,168.56c-45.59663,0 -82.56,-36.96337 -82.56,-82.56v0c0,-45.59663 36.96337,-82.56 82.56,-82.56v0c45.59663,0 82.56,36.96337 82.56,82.56v0c0,45.59663 -36.96337,82.56 -82.56,82.56z"
                fill="none"
              ></path>
              <path
                d="M86,172c-47.49649,0 -86,-38.50351 -86,-86v0c0,-47.49649 38.50351,-86 86,-86v0c47.49649,0 86,38.50351 86,86v0c0,47.49649 -38.50351,86 -86,86z"
                fill="none"
              ></path>
              <path
                d="M86,168.56c-45.59663,0 -82.56,-36.96337 -82.56,-82.56v0c0,-45.59663 36.96337,-82.56 82.56,-82.56v0c45.59663,0 82.56,36.96337 82.56,82.56v0c0,45.59663 -36.96337,82.56 -82.56,82.56z"
                fill="none"
              ></path>
              <path
                d="M86,172c-47.49649,0 -86,-38.50351 -86,-86v0c0,-47.49649 38.50351,-86 86,-86v0c47.49649,0 86,38.50351 86,86v0c0,47.49649 -38.50351,86 -86,86z"
                fill="none"
              ></path>
              <path
                d="M86,168.56c-45.59663,0 -82.56,-36.96337 -82.56,-82.56v0c0,-45.59663 36.96337,-82.56 82.56,-82.56v0c45.59663,0 82.56,36.96337 82.56,82.56v0c0,45.59663 -36.96337,82.56 -82.56,82.56z"
                fill="none"
              ></path>
              <path
                d="M86,172c-47.49649,0 -86,-38.50351 -86,-86v0c0,-47.49649 38.50351,-86 86,-86v0c47.49649,0 86,38.50351 86,86v0c0,47.49649 -38.50351,86 -86,86z"
                fill="none"
              ></path>
              <path
                d="M86,168.56c-45.59663,0 -82.56,-36.96337 -82.56,-82.56v0c0,-45.59663 36.96337,-82.56 82.56,-82.56v0c45.59663,0 82.56,36.96337 82.56,82.56v0c0,45.59663 -36.96337,82.56 -82.56,82.56z"
                fill="none"
              ></path>
              <path
                d="M86,172c-47.49649,0 -86,-38.50351 -86,-86v0c0,-47.49649 38.50351,-86 86,-86v0c47.49649,0 86,38.50351 86,86v0c0,47.49649 -38.50351,86 -86,86z"
                fill="none"
              ></path>
              <path
                d="M86,168.56c-45.59663,0 -82.56,-36.96337 -82.56,-82.56v0c0,-45.59663 36.96337,-82.56 82.56,-82.56v0c45.59663,0 82.56,36.96337 82.56,82.56v0c0,45.59663 -36.96337,82.56 -82.56,82.56z"
                fill="none"
              ></path>
              <path
                d="M86,172c-47.49649,0 -86,-38.50351 -86,-86v0c0,-47.49649 38.50351,-86 86,-86v0c47.49649,0 86,38.50351 86,86v0c0,47.49649 -38.50351,86 -86,86z"
                fill="none"
              ></path>
              <path
                d="M86,168.56c-45.59663,0 -82.56,-36.96337 -82.56,-82.56v0c0,-45.59663 36.96337,-82.56 82.56,-82.56v0c45.59663,0 82.56,36.96337 82.56,82.56v0c0,45.59663 -36.96337,82.56 -82.56,82.56z"
                fill="none"
              ></path>
              <path
                d="M86,172c-47.49649,0 -86,-38.50351 -86,-86v0c0,-47.49649 38.50351,-86 86,-86v0c47.49649,0 86,38.50351 86,86v0c0,47.49649 -38.50351,86 -86,86z"
                fill="none"
              ></path>
              <path
                d="M86,168.56c-45.59663,0 -82.56,-36.96337 -82.56,-82.56v0c0,-45.59663 36.96337,-82.56 82.56,-82.56v0c45.59663,0 82.56,36.96337 82.56,82.56v0c0,45.59663 -36.96337,82.56 -82.56,82.56z"
                fill="none"
              ></path>
              <path
                d="M86,172c-47.49649,0 -86,-38.50351 -86,-86v0c0,-47.49649 38.50351,-86 86,-86v0c47.49649,0 86,38.50351 86,86v0c0,47.49649 -38.50351,86 -86,86z"
                fill="none"
              ></path>
              <path
                d="M86,168.56c-45.59663,0 -82.56,-36.96337 -82.56,-82.56v0c0,-45.59663 36.96337,-82.56 82.56,-82.56v0c45.59663,0 82.56,36.96337 82.56,82.56v0c0,45.59663 -36.96337,82.56 -82.56,82.56z"
                fill="none"
              ></path>
              <path
                d="M86,172c-47.49649,0 -86,-38.50351 -86,-86v0c0,-47.49649 38.50351,-86 86,-86v0c47.49649,0 86,38.50351 86,86v0c0,47.49649 -38.50351,86 -86,86z"
                fill="none"
              ></path>
              <path
                d="M86,165.12c-43.69677,0 -79.12,-35.42323 -79.12,-79.12v0c0,-43.69677 35.42323,-79.12 79.12,-79.12v0c43.69677,0 79.12,35.42323 79.12,79.12v0c0,43.69677 -35.42323,79.12 -79.12,79.12z"
                fill="none"
              ></path>
            </g>
          </svg>